# xmcd
#
# Track frame offsets: 
#        150
#        12837
#        27461
#        42144
#        63925
#        87898
#        115744
#        129049
#        142158
#        156637
#        170633
#        182314
#        210300
#        223192
#        237637
#        251890
#        265580
#        279588
#        289081
#        310741
#        329700
#
# Disc length: 4631 seconds
#
# Revision: 3
# Processed by: cddbd v1.5.1PL0 Copyright (c) Steve Scherf et al.
# Submitted via: ExactAudioCopy v0.95a5
#
DISCID=39121515
DTITLE=Various Artist - Essential Jazz [CD4]
DYEAR=2002
DGENRE=Jazz
TTITLE0=Frank Sinatra - All Of Me
TTITLE1=Benny Goodman - Stompin' At The Savoy
TTITLE2=Ella Fitzgerald - Oh, Lady Be Good
TTITLE3=Herbie Hancock - Soul Power
TTITLE4=Buddy Greco - Me And Mrs Jones
TTITLE5=Stan Getz - Heartplace
TTITLE6=Nat 'King' Cole - I'm Thru With Love
TTITLE7=Duke Ellington - Take The 'A' Train
TTITLE8=Benny Goodman with Martha Tilton - And The Angels Sing
TTITLE9=Count Basie and His Orchestra - Jumpin' at the Woodside
TTITLE10=Louis Jordan - Caldonia
TTITLE11=Charles Mingus - Fables Of Faubus
TTITLE12=Dinah Washington - Embraceable You
TTITLE13=Charlie Parker - Bird Of Paradise
TTITLE14=Dizzy Gillespie - Hot House
TTITLE15=Mel Torme - I Can't Give You Anything But Love
TTITLE16=Thelonious Monk - Ruby, My Dear
TTITLE17=Tony Bennett - Chicago
TTITLE18=Sonny Stitt - Sonny's Blues
TTITLE19=Lena Horne - When I Fall In Love
TTITLE20=The Keiles Jazz Band - I Wish I Knew How It Would Feel
EXTD=
EXTT0=
EXTT1=
EXTT2=
EXTT3=
EXTT4=
EXTT5=
EXTT6=
EXTT7=
EXTT8=
EXTT9=
EXTT10=
EXTT11=
EXTT12=
EXTT13=
EXTT14=
EXTT15=
EXTT16=
EXTT17=
EXTT18=
EXTT19=
EXTT20=
PLAYORDER=
